<?xml version="1.0" encoding="UTF-8"?>
<svg version="1.1" xmlns="http://www.w3.org/2000/svg" width="642" height="420">
<path d="M0 0 C211.86 0 423.72 0 642 0 C642 138.6 642 277.2 642 420 C430.14 420 218.28 420 0 420 C0 281.4 0 142.8 0 0 Z " fill="#010100" transform="translate(0,0)"/>
<path d="M0 0 C1.37478516 0.01740234 1.37478516 0.01740234 2.77734375 0.03515625 C3.69644531 0.04417969 4.61554688 0.05320313 5.5625 0.0625 C6.27277344 0.07410156 6.98304688 0.08570313 7.71484375 0.09765625 C6.59032648 3.06959475 5.49190584 5.43206312 3.71484375 8.09765625 C3.12273232 11.49488498 3.12273232 11.49488498 4.71484375 15.09765625 C8.21929211 17.9732675 12.15664525 19.98257101 16.15234375 22.09765625 C17.33557546 22.74748739 18.51735925 23.39996123 19.69775391 24.05493164 C22.14996549 25.41295472 24.60801392 26.75940247 27.07080078 28.09814453 C32.63836467 31.13702139 38.10812513 34.34494116 43.58984375 37.53515625 C50.25658009 41.38898532 56.9319098 45.227272 63.625 49.03515625 C100.75594129 70.16555602 100.75594129 70.16555602 114.33666992 78.75610352 C117.81186597 80.71649796 119.79774484 80.8672408 123.71484375 80.09765625 C126.14462167 77.7258452 127.67967454 74.91447609 129.33984375 71.97265625 C129.84563965 71.12533936 130.35143555 70.27802246 130.87255859 69.4050293 C132.51074231 66.64935411 134.11259294 63.87434926 135.71484375 61.09765625 C136.8163673 59.23020926 137.920536 57.36431999 139.02734375 55.5 C141.230802 51.78541365 143.42330527 48.06468543 145.609375 44.33984375 C149.47752395 37.77650688 153.52236205 31.33017016 157.59033203 24.88964844 C160.00859055 21.03597551 162.36595577 17.1446115 164.73046875 13.2578125 C165.3853125 12.21496094 166.04015625 11.17210937 166.71484375 10.09765625 C167.06237261 9.35798142 167.40990147 8.6183066 167.7679615 7.85621738 C169.18841679 5.17060429 170.51029472 3.19998218 172.71484375 1.09765625 C177.00229996 -0.21535674 181.1510964 -0.0419998 185.60498047 0.07592773 C187.55213203 0.07395638 187.55213203 0.07395638 189.53862 0.07194519 C193.08680302 0.06936896 196.63223233 0.12216765 200.17977667 0.18511081 C203.89120247 0.24148246 207.60269579 0.24666773 211.31448364 0.25733948 C218.33787731 0.28528158 225.36000588 0.35909097 232.38284314 0.44948488 C240.38023253 0.55018175 248.37768327 0.59959022 256.37554908 0.6447438 C272.82272052 0.73874608 289.26862055 0.89698412 305.71484375 1.09765625 C305.71484375 1.42765625 305.71484375 1.75765625 305.71484375 2.09765625 C289.22498293 3.61425334 272.84875312 4.21969298 256.29643631 4.33147812 C249.90351056 4.38827178 243.51145782 4.51197914 237.11950111 4.63461113 C231.61845813 4.73478954 226.12283858 4.79196314 220.62084961 4.76342773 C197.43522839 3.29611554 197.43522839 3.29611554 176.36880493 10.40612793 C171.4339977 15.73550875 168.72535727 21.59974037 166.57881165 28.48016357 C165.44304384 31.92110614 163.82300753 34.49677 161.77734375 37.47265625 C157.86383287 43.81203672 154.04309766 50.20652531 150.21484375 56.59765625 C145.10180619 65.13211542 139.97151029 73.65073691 134.71484375 82.09765625 C133.79638672 83.61939453 133.79638672 83.61939453 132.859375 85.171875 C132.25480469 86.15800781 131.65023437 87.14414062 131.02734375 88.16015625 C130.50785156 89.01738281 129.98835937 89.87460937 129.453125 90.7578125 C126.76078776 94.38187994 124.00266465 96.66838262 119.71484375 98.09765625 C111.90317487 99.08063908 107.35400479 96.09992829 100.83984375 92.03515625 C98.69463732 90.73984661 96.54878163 89.44561175 94.40234375 88.15234375 C92.7471875 87.14445801 92.7471875 87.14445801 91.05859375 86.11621094 C85.6999599 82.88131136 80.2696437 79.77358685 74.83984375 76.66015625 C72.66120924 75.40538031 70.48282524 74.15016932 68.3046875 72.89453125 C67.2204248 72.26998047 66.13616211 71.64542969 65.01904297 71.00195312 C61.68870123 69.08258963 58.35975227 67.16083272 55.03125 65.23828125 C44.95832011 59.42074838 34.8805688 53.61244315 24.77734375 47.84765625 C22.26299953 46.41112903 19.74886039 44.97424395 17.23486328 43.53710938 C15.50730912 42.55031812 13.77908429 41.56470034 12.05029297 40.58007812 C9.43609595 39.09005719 6.82516588 37.59445261 4.21484375 36.09765625 C3.43117432 35.65260742 2.64750488 35.20755859 1.84008789 34.74902344 C-9.39680142 28.2855558 -9.39680142 28.2855558 -11.28515625 23.09765625 C-12.71915006 14.06349523 -8.2771968 8.18994218 -3.28515625 1.09765625 C-2.28515625 0.09765625 -2.28515625 0.09765625 0 0 Z " fill="#EC7911" transform="translate(179.28515625,247.90234375)"/>
<path d="M0 0 C4.49657069 1.78181054 8.54544749 4.14097962 12.6875 6.625 C13.8685725 7.31037348 15.05088931 7.99360671 16.234375 8.67480469 C19.25446988 10.4200818 22.25800399 12.19192779 25.25823975 13.97106934 C27.97077805 15.57347921 30.69851848 17.1493809 33.42578125 18.7265625 C38.38990825 21.60192392 43.33951259 24.50119584 48.28515625 27.40820312 C52.34669482 29.78960883 56.42267281 32.14576186 60.5 34.5 C65.55327235 37.41841278 70.599488 40.34806787 75.6328125 43.30078125 C77.63013299 44.47148271 79.62753018 45.64205334 81.625 46.8125 C82.61943115 47.39580078 83.6138623 47.97910156 84.63842773 48.58007812 C90.00517744 51.71472345 95.39773577 54.79082529 100.83984375 57.79296875 C101.96374512 58.41389404 103.08764648 59.03481934 104.24560547 59.67456055 C106.39813157 60.85919456 108.55450748 62.03687008 110.71533203 63.20629883 C125.02685768 71.08057303 125.02685768 71.08057303 127 77 C127.77636748 84.37549102 125.58166889 88.55299599 122 95 C118.37 95 114.74 95 111 95 C111.825 93.47375 112.65 91.9475 113.5 90.375 C116.41446878 84.90392633 116.41446878 84.90392633 116 79 C109.79220725 73.90041185 102.25656472 70.23822916 95.25 66.375 C93.01392512 65.13222589 90.77825387 63.88872529 88.54296875 62.64453125 C86.88273682 61.72148193 86.88273682 61.72148193 85.18896484 60.77978516 C66.57460942 50.39097402 48.16756065 39.62233657 29.71870422 28.94364929 C27.96465818 27.92854947 26.2102873 26.9140134 24.45581055 25.8996582 C22.26651034 24.6337106 20.07782482 23.36669907 17.88989258 22.09838867 C12.94704762 19.24120929 7.99197167 16.40564183 3.0078125 13.62109375 C2.14430176 13.13697021 1.28079102 12.65284668 0.39111328 12.15405273 C-2.81738065 10.60549741 -5.46132306 10.15727453 -9 10 C-9.25185059 10.69013184 -9.50370117 11.38026367 -9.76318359 12.09130859 C-11.17657399 15.41525909 -12.92987573 18.4528394 -14.7890625 21.5390625 C-15.16452713 22.16898102 -15.53999176 22.79889954 -15.92683411 23.44790649 C-17.15626034 25.50892612 -18.39063153 27.56693726 -19.625 29.625 C-20.4848376 31.06455101 -21.34428949 32.50433247 -22.20336914 33.94433594 C-23.95503377 36.88003872 -25.70823699 39.81481432 -27.46240234 42.74902344 C-31.13996978 48.90465315 -34.78745352 55.07802991 -38.4375 61.25 C-43.25546973 69.38418785 -48.08309216 77.51249664 -52.9375 85.625 C-53.44015381 86.46708008 -53.94280762 87.30916016 -54.46069336 88.17675781 C-54.91581299 88.93569336 -55.37093262 89.69462891 -55.83984375 90.4765625 C-56.23550537 91.13736816 -56.63116699 91.79817383 -57.03881836 92.47900391 C-58 94 -58 94 -59 95 C-60.92361627 95.09660952 -62.85083066 95.12187168 -64.77687073 95.12025452 C-66.03195435 95.12162918 -67.28703796 95.12300385 -68.58015442 95.12442017 C-69.98385644 95.12088055 -71.38755822 95.11724574 -72.79125977 95.11352539 C-74.25936888 95.11324353 -75.72747813 95.11340124 -77.19558716 95.1139679 C-81.19334657 95.1142559 -85.19107624 95.10835874 -89.18882871 95.10139394 C-93.36220733 95.09516085 -97.53558656 95.09455664 -101.70896912 95.09336853 C-109.61732792 95.09025508 -117.52567297 95.08204151 -125.4340257 95.07201904 C-134.43508494 95.06085832 -143.43614482 95.05534756 -152.43720925 95.05032361 C-170.95814731 95.03985891 -189.47907255 95.0222592 -208 95 C-208 94.67 -208 94.34 -208 94 C-207.12068314 93.96907761 -206.24136627 93.93815521 -205.33540344 93.90629578 C-201.84240315 93.783144 -198.34942217 93.65946758 -194.85645294 93.53543854 C-193.22922535 93.47771819 -191.60199242 93.42014801 -189.97475433 93.3627243 C-180.0615504 93.01250717 -170.1493129 92.6456857 -160.23803711 92.24438477 C-156.50767782 92.09450653 -152.77728469 91.94549307 -149.046875 91.796875 C-148.11438997 91.75949659 -147.18190495 91.72211819 -146.2211628 91.6836071 C-135.07529187 91.24137054 -123.94061869 90.91261408 -112.78633118 90.81108093 C-107.84216318 90.76573261 -102.89967937 90.66470651 -97.95675182 90.54683399 C-94.70404228 90.4732842 -91.45934812 90.4424396 -88.20571899 90.46908569 C-75.32375919 91.12898758 -75.32375919 91.12898758 -64.00314331 86.23019409 C-60.66306893 81.94230911 -58.65152295 77.28805328 -56.84416199 72.19618225 C-55.58355472 68.91657082 -53.82184896 66.14983771 -51.9375 63.1875 C-51.35005005 62.21744019 -51.35005005 62.21744019 -50.75073242 61.2277832 C-50.41404541 60.67437256 -50.0773584 60.12096191 -49.73046875 59.55078125 C-47.12617956 55.23720655 -44.58831572 50.88540319 -42.05047607 46.53257751 C-35.70500441 35.64930592 -29.34946231 24.7695972 -22.8125 14 C-22.30879883 13.1529248 -21.80509766 12.30584961 -21.28613281 11.43310547 C-15.85986063 2.58671479 -10.99036796 -2.11824041 0 0 Z " fill="#E97912" transform="translate(319,37)"/>
<path d="M0 0 C4.29 0 8.58 0 13 0 C13 7.26 13 14.52 13 22 C20.26 22 27.52 22 35 22 C35 14.74 35 7.48 35 0 C39.29 0 43.58 0 48 0 C48 19.47 48 38.94 48 59 C43.71 59 39.42 59 35 59 C35 51.08 35 43.16 35 35 C27.74 35 20.48 35 13 35 C13 42.92 13 50.84 13 59 C8.71 59 4.42 59 0 59 C0 39.53 0 20.06 0 0 Z " fill="#EB7910" transform="translate(440,147)"/>
<path d="M0 0 C3.65408828 2.66945371 6.48154338 5.22231507 9 9 C9 9.99 9 10.98 9 12 C7.13671875 13.60546875 7.13671875 13.60546875 4.6875 15.1875 C3.48673828 15.98220703 3.48673828 15.98220703 2.26171875 16.79296875 C0 18 0 18 -3 18 C-4.34919532 16.34614767 -5.68133728 14.678298 -7 13 C-11.1993734 10.41849046 -15.19990312 10.33216043 -20 11 C-24.84037606 13.37452411 -27.79259516 16.0757892 -30 21 C-30.71080045 27.0418038 -31.19983865 33.59107364 -28.4375 39.1875 C-25.08888753 43.05128362 -22.03309214 44.53066272 -16.98046875 45.3125 C-11.82069079 45.62820343 -8.90094582 44.25078818 -5 41 C-4.34 40.01 -3.68 39.02 -3 38 C1.61513112 39.31860889 5.09897612 41.21355437 9 44 C8.0529669 48.85221453 5.65579612 51.75792566 2 55 C-5.84267408 60.19312202 -15.94294652 60.21821347 -25 59 C-32.96364636 56.86816159 -38.30022647 51.59775899 -43 45 C-47.24726967 37.33131865 -48.04068285 29.6264868 -47 21 C-44.60232775 13.01382922 -40.25936246 5.35868697 -33 1 C-32.06994141 0.38898438 -32.06994141 0.38898438 -31.12109375 -0.234375 C-22.26197632 -5.1430321 -8.79886881 -4.79938299 0 0 Z " fill="#F5F5F5" transform="translate(101,148)"/>
<path d="M0 0 C3.96 0 7.92 0 12 0 C12.33 6.6 12.66 13.2 13 20 C14.65 18.68 16.3 17.36 18 16 C23.22743073 14.96516655 27.74501725 15.37250863 32.5 17.75 C37.60658503 22.34592653 39.62041649 26.7329578 40.2265625 33.546875 C40.46828245 41.32586258 39.26239202 48.2024134 35.25 54.9375 C31.39294353 58.47313509 27.58800062 59.80498238 22.4375 60.4375 C18.36133788 59.91871573 16.20761244 58.50350239 13 56 C12.67 56.99 12.34 57.98 12 59 C8.04 59 4.08 59 0 59 C0 39.53 0 20.06 0 0 Z " fill="#E77611" transform="translate(544,147)"/>
<path d="M0 0 C1.37478516 0.01740234 1.37478516 0.01740234 2.77734375 0.03515625 C3.69644531 0.04417969 4.61554688 0.05320313 5.5625 0.0625 C6.27277344 0.07410156 6.98304688 0.08570313 7.71484375 0.09765625 C6.59032648 3.06959475 5.49190584 5.43206312 3.71484375 8.09765625 C3.12273232 11.49488498 3.12273232 11.49488498 4.71484375 15.09765625 C8.21928558 17.97326214 12.15666739 19.98254933 16.15234375 22.09765625 C17.33265061 22.74601434 18.51150518 23.39702259 19.68896484 24.05053711 C22.13819672 25.40719029 24.59329565 26.75219959 27.05322266 28.08935547 C32.70835485 31.17537958 38.26919396 34.42497079 43.83984375 37.66015625 C45.97506801 38.89226058 48.11048479 40.12403135 50.24609375 41.35546875 C60.42210872 47.23556531 70.56962262 53.16462469 80.71484375 59.09765625 C77.41113258 61.30013036 76.49981205 61.19228046 72.71484375 61.09765625 C71.22984375 61.59265625 71.22984375 61.59265625 69.71484375 62.09765625 C69.05484375 65.39765625 68.39484375 68.69765625 67.71484375 72.09765625 C66.93625 71.64777344 66.15765625 71.19789063 65.35546875 70.734375 C58.28811728 66.67146211 51.18062857 62.69484071 44.02734375 58.78515625 C34.97916652 53.83189999 26.0428444 48.70429548 17.13525391 43.50341797 C14.58888374 42.02449932 12.03387718 40.56146733 9.4765625 39.1015625 C8.61683838 38.60914063 7.75711426 38.11671875 6.87133789 37.609375 C5.23041829 36.66998849 3.58777745 35.73359975 1.94311523 34.80078125 C-9.39511871 28.29017874 -9.39511871 28.29017874 -11.28515625 23.09765625 C-12.71915006 14.06349523 -8.2771968 8.18994218 -3.28515625 1.09765625 C-2.28515625 0.09765625 -2.28515625 0.09765625 0 0 Z " fill="#EC7A11" transform="translate(179.28515625,247.90234375)"/>
<path d="M0 0 C5.67615776 3.44450599 10.20768777 8.17585887 12.125 14.625 C12.53664767 18.16516993 12.4375 21.74847742 12.4375 25.3125 C1.5475 25.3125 -9.3425 25.3125 -20.5625 25.3125 C-17.91011844 30.29237933 -17.91011844 30.29237933 -13.5625 32.3125 C-10.84562503 32.62757687 -10.84562503 32.62757687 -8 32.5625 C-6.57494141 32.57023437 -6.57494141 32.57023437 -5.12109375 32.578125 C-2.32150727 32.48826075 -2.32150727 32.48826075 0.4375 30.3125 C3.59171114 30.41424875 4.49027144 31.36527144 6.75 33.625 C8.4375 36.3125 8.4375 36.3125 8.296875 38.33984375 C7.13415075 41.00882442 6.04049173 41.44112452 3.375 42.5625 C-4.49510171 45.41611961 -15.35469988 46.22957082 -23.1875 42.75 C-28.68596838 39.31953964 -32.54831872 34.4470156 -34.5625 28.3125 C-35.57122667 19.66627136 -34.16614945 12.25516917 -29.375 5 C-21.50342329 -2.52172886 -10.19452652 -4.73939089 0 0 Z " fill="#F5F5F5" transform="translate(402.5625,162.6875)"/>
<path d="M0 0 C4.65296356 3.2926287 7.56974374 6.58966403 9.0625 12.1875 C9.38021876 16.23841415 9.3125 20.31164539 9.3125 24.375 C-1.2475 24.375 -11.8075 24.375 -22.6875 24.375 C-20.13214865 29.09204177 -20.13214865 29.09204177 -17.6875 31.375 C-11.10661359 32.0540596 -4.89897497 31.63371817 1.3125 29.375 C2.15155565 30.49573862 2.98357831 31.62174547 3.8125 32.75 C4.2765625 33.37648437 4.740625 34.00296875 5.21875 34.6484375 C6.3125 36.375 6.3125 36.375 6.3125 38.375 C5.06514433 39.0259259 3.81448168 39.67051669 2.5625 40.3125 C1.86640625 40.67214844 1.1703125 41.03179687 0.453125 41.40234375 C-6.48591382 44.55530117 -15.91827759 44.65312239 -23.23828125 42.69140625 C-25.25502331 41.74764929 -26.91993588 40.72592401 -28.6875 39.375 C-29.24953125 38.95089844 -29.8115625 38.52679688 -30.390625 38.08984375 C-35.27950403 33.82987391 -37.11127272 28.62467621 -37.96875 22.30078125 C-38.31046394 15.05359808 -35.92553292 9.57925058 -31.4375 4.0625 C-23.38052333 -4.41064282 -10.26752624 -5.80404673 0 0 Z " fill="#F5F5F5" transform="translate(152.6875,163.625)"/>
<path d="M0 0 C4.95 0 9.9 0 15 0 C15.04898437 2.05863281 15.09796875 4.11726562 15.1484375 6.23828125 C15.20406694 8.23398733 15.25976377 10.22969217 15.31738281 12.2253418 C15.3556435 13.61131907 15.39050156 14.99739465 15.421875 16.38354492 C15.46758699 18.3770164 15.52658925 20.37016914 15.5859375 22.36328125 C15.6173584 23.56251221 15.6487793 24.76174316 15.68115234 25.99731445 C15.78429494 29.17882706 15.78429494 29.17882706 18 32 C20.06177032 32.51514107 20.06177032 32.51514107 22.375 32.4375 C23.14585937 32.45683594 23.91671875 32.47617188 24.7109375 32.49609375 C27.90624261 31.80359589 28.97164738 30.54341098 31 28 C31.63995961 24.9150054 31.63995961 24.9150054 31.609375 21.484375 C31.64160156 20.23398438 31.67382812 18.98359375 31.70703125 17.6953125 C31.72121094 16.39335937 31.73539062 15.09140625 31.75 13.75 C31.77964844 12.43257812 31.80929687 11.11515625 31.83984375 9.7578125 C31.91054536 6.50553866 31.9575357 3.25276508 32 0 C36.62 0 41.24 0 46 0 C46 14.52 46 29.04 46 44 C41.38 44 36.76 44 32 44 C32 42.35 32 40.7 32 39 C31.34 39 30.68 39 30 39 C30 39.66 30 40.32 30 41 C23.17127727 45.28468877 17.00701285 46.19896677 9 45 C4.16615858 42.84857437 1.95453915 38.73952231 0 34 C-0.24713645 31.24092972 -0.35266646 28.72452075 -0.29296875 25.9765625 C-0.28872391 25.23038666 -0.28447906 24.48421082 -0.28010559 23.71542358 C-0.26342382 21.35156902 -0.22579339 18.98859324 -0.1875 16.625 C-0.17243949 15.0143353 -0.15875348 13.40365713 -0.14648438 11.79296875 C-0.11611676 7.86137507 -0.05738101 3.93166146 0 0 Z " fill="#F5F5F5" transform="translate(275,162)"/>
<path d="M0 0 C3.96 0 7.92 0 12 0 C12.01981934 0.83249268 12.03963867 1.66498535 12.06005859 2.52270508 C12.13820742 5.614765 12.22490206 8.70643383 12.31738281 11.7980957 C12.37444092 13.7929536 12.42164442 15.7880854 12.46875 17.78320312 C12.50742187 19.03681641 12.54609375 20.29042969 12.5859375 21.58203125 C12.6173584 22.73936768 12.6487793 23.8967041 12.68115234 25.08911133 C12.79471033 28.19127028 12.79471033 28.19127028 15 31 C19.57309829 31.56774819 19.57309829 31.56774819 23.69067383 29.86401367 C25.57511658 27.18123902 25.43527129 25.05744312 25.51171875 21.80078125 C25.54716797 20.59228516 25.58261719 19.38378906 25.61914062 18.13867188 C25.64169922 16.87603516 25.66425781 15.61339844 25.6875 14.3125 C25.72166016 13.03826172 25.75582031 11.76402344 25.79101562 10.45117188 C25.87360195 7.30109357 25.93847391 4.15056001 26 1 C29.96 1 33.92 1 38 1 C38 14.86 38 28.72 38 43 C34.04 43 30.08 43 26 43 C25.67 41.68 25.34 40.36 25 39 C23.6078125 39.9590625 23.6078125 39.9590625 22.1875 40.9375 C17.61321646 43.89733052 13.40322035 44.90904842 8 44 C4.78231818 42.3031481 2.56200892 40.06386215 0.84814453 36.81958008 C-0.23747263 33.21054365 -0.24894194 29.80397611 -0.1953125 26.07421875 C-0.1924826 25.32662796 -0.18965271 24.57903717 -0.18673706 23.80879211 C-0.17559469 21.4348612 -0.15050162 19.06131575 -0.125 16.6875 C-0.11496249 15.0722711 -0.10583799 13.45703624 -0.09765625 11.84179688 C-0.07567489 7.89438406 -0.04118657 3.94725726 0 0 Z " fill="#E97811" transform="translate(497,163)"/>
<path d="M0 0 C2.43585605 1.2409078 4.59078057 2.60218705 6.875 4.125 C6.29924336 7.47750701 5.28193737 9.06318629 2.8125 11.375 C2.26464844 11.89578125 1.71679688 12.4165625 1.15234375 12.953125 C0.73082031 13.33984375 0.30929687 13.7265625 -0.125 14.125 C-0.723125 13.815625 -1.32125 13.50625 -1.9375 13.1875 C-6.15317817 11.13988489 -9.45945403 10.72279776 -14.125 11.125 C-17.25153374 12.24243343 -17.25153374 12.24243343 -19.125 15.125 C-20.01913115 20.22311621 -19.82063178 24.58251213 -17.6875 29.3125 C-14.40784881 31.63225328 -12.17914601 31.60884567 -8.24609375 31.49609375 C-5.83167627 31.22051245 -5.83167627 31.22051245 -3.125 29.125 C0.05371348 29.47465848 2.10097687 30.79448266 4.625 32.6875 C5.23859375 33.14253906 5.8521875 33.59757812 6.484375 34.06640625 C7.17273438 34.59041016 7.17273438 34.59041016 7.875 35.125 C6.0712345 39.38844573 3.87991297 41.0311257 -0.171875 43.12890625 C-8.3006328 45.87074916 -17.57222006 45.42637112 -25.3125 41.75 C-30.70015794 38.26911859 -33.51904433 34.32789756 -35.125 28.125 C-36.19751781 19.18381189 -35.10586367 13.13285097 -30.5625 5.5 C-22.22322524 -2.6254472 -10.72611895 -4.62182361 0 0 Z " fill="#F4F4F4" transform="translate(260.125,162.875)"/>
<path d="M0 0 C4.62 0 9.24 0 14 0 C14.33 16.5 14.66 33 15 50 C16.65 50 18.3 50 20 50 C20 53.96 20 57.92 20 62 C17.93867858 62.10864945 15.87568679 62.18588321 13.8125 62.25 C12.66394531 62.29640625 11.51539063 62.3428125 10.33203125 62.390625 C6.31400228 61.91957823 4.81157638 60.85652165 2 58 C0.0010424 54.79412972 -0.24456371 52.33663372 -0.22705078 48.58886719 C-0.22689972 47.50804871 -0.22674866 46.42723022 -0.22659302 45.31365967 C-0.21627045 44.15312073 -0.20594788 42.99258179 -0.1953125 41.796875 C-0.1924826 40.60394836 -0.18965271 39.41102173 -0.18673706 38.1819458 C-0.17554053 34.37119524 -0.15043653 30.56067955 -0.125 26.75 C-0.11496954 24.16667006 -0.1058438 21.58333644 -0.09765625 19 C-0.07560285 12.66657615 -0.04107626 6.3333279 0 0 Z " fill="#F9F9F9" transform="translate(172,145)"/>
<path d="M0 0 C4.62 0 9.24 0 14 0 C14 20.13 14 40.26 14 61 C9.38 61 4.76 61 0 61 C0 40.87 0 20.74 0 0 Z " fill="#F9F9F9" transform="translate(202,145)"/>
<path d="M0 0 C0 4.29 0 8.58 0 13 C-2.84625 13.1546875 -2.84625 13.1546875 -5.75 13.3125 C-10.15996377 13.55217194 -12.83956159 13.80618843 -16 17 C-16.64472298 19.99195597 -16.64472298 19.99195597 -16.609375 23.41796875 C-16.64160156 24.67158203 -16.67382812 25.92519531 -16.70703125 27.21679688 C-16.72830078 29.18229492 -16.72830078 29.18229492 -16.75 31.1875 C-16.77815981 32.52282536 -16.80808729 33.8581147 -16.83984375 35.19335938 C-16.91064265 38.4619088 -16.95757248 41.7309592 -17 45 C-21.62 45 -26.24 45 -31 45 C-31 30.48 -31 15.96 -31 1 C-26.38 1 -21.76 1 -17 1 C-16.67 2.65 -16.34 4.3 -16 6 C-15.59910156 5.566875 -15.19820313 5.13375 -14.78515625 4.6875 C-9.84531702 -0.15152618 -6.83680608 -0.63108979 0 0 Z " fill="#F8F8F8" transform="translate(364,161)"/>
<path d="M0 0 C3.96 0 7.92 0 12 0 C12 6.93 12 13.86 12 21 C13.65 20.67 15.3 20.34 17 20 C16.67 21.32 16.34 22.64 16 24 C16.99 24.33 17.98 24.66 19 25 C15.86650268 26.04449911 15.01031744 25.93423645 12 25 C10.85017398 29.09003859 10.88905744 33.03177051 10.9375 37.25 C10.94201172 37.99507812 10.94652344 38.74015625 10.95117188 39.5078125 C10.96290754 41.3385764 10.9808415 43.16929873 11 45 C11.95132813 45.42925781 11.95132813 45.42925781 12.921875 45.8671875 C15.41561201 47.22655542 15.96432124 48.41080309 17 51 C15.02 51.495 15.02 51.495 13 52 C13 52.66 13 53.32 13 54 C12.34 54 11.68 54 11 54 C11 55.32 11 56.64 11 58 C7.37 58 3.74 58 0 58 C0 38.86 0 19.72 0 0 Z " fill="#ED7A10" transform="translate(544,147)"/>
<path d="M0 0 C3.00398345 2.55658166 4.62059971 4.14635857 5.41015625 8.00390625 C5.60598029 12.49083104 4.69935985 15.47006789 2 19 C-0.59335905 21.59335905 -2.48747032 21.27726563 -6.02734375 21.36328125 C-8 21 -8 21 -9.7265625 19.94921875 C-11.67517399 16.96652816 -11.47358142 13.94413564 -11.4375 10.5 C-11.45748047 9.82324219 -11.47746094 9.14648438 -11.49804688 8.44921875 C-11.49487023 5.22810507 -11.43342705 3.46238446 -9.1875 1.06640625 C-5.85258428 -0.55936516 -3.65442938 -0.57701517 0 0 Z " fill="#0E0501" transform="translate(567,174)"/>
<path d="M0 0 C0 0.33 0 0.66 0 1 C-7.59 1.33 -15.18 1.66 -23 2 C16.27 2.33 55.54 2.66 96 3 C96 3.33 96 3.66 96 4 C6.81962729 5.0960539 6.81962729 5.0960539 -27.61975098 5.17724609 C-30.15565123 5.18405714 -32.69154472 5.19428583 -35.22741699 5.20800781 C-38.69204519 5.22556134 -42.15642705 5.23016065 -45.62109375 5.23046875 C-46.61570114 5.23761398 -47.61030853 5.24475922 -48.63505554 5.25212097 C-53.18882836 5.23688183 -56.87651384 5.19524115 -61 3 C-61 2.67 -61 2.34 -61 2 C-55.35027516 0.74627609 -49.7678133 0.63749467 -44 0.4375 C-42.82912842 0.3950415 -41.65825684 0.35258301 -40.4519043 0.30883789 C-26.96816262 -0.13452431 -13.48943178 -0.09583704 0 0 Z " fill="#3E1B02" transform="translate(163,129)"/>
<path d="M0 0 C0 0.33 0 0.66 0 1 C-17.69375673 2.40215527 -35.39355071 3.35680374 -53.125 4.125 C-54.1166214 4.16929138 -55.1082428 4.21358276 -56.12991333 4.25921631 C-69.09537278 4.83378035 -82.02189916 5.11909983 -95 5 C-95 4.67 -95 4.34 -95 4 C-90.38 3.67 -85.76 3.34 -81 3 C-82.32 2.34 -83.64 1.68 -85 1 C-56.66528087 0.38603955 -28.3424283 -0.20406046 0 0 Z " fill="#E17816" transform="translate(485,249)"/>
<path d="M0 0 C5.51111397 0.24283978 9.2669658 1.90380963 13.9375 4.75 C14.52595703 5.08515625 15.11441406 5.4203125 15.72070312 5.765625 C17.40234375 6.796875 17.40234375 6.796875 20 9 C20.50390625 11.640625 20.50390625 11.640625 20 14 C19.34 14.66 18.68 15.32 18 16 C13.03869189 15.74152375 9.32621967 13.81723318 5.1875 11.25 C4.60291016 10.91484375 4.01832031 10.5796875 3.41601562 10.234375 C0.64093708 8.53652856 -0.83283873 7.43629736 -2.01171875 4.359375 C-2 2 -2 2 0 0 Z " fill="#190A02" transform="translate(229,297)"/>
<path d="M0 0 C0 0.99 0 1.98 0 3 C-31.67227379 3.8711613 -63.31645589 4.1297279 -95 4 C-95 3.67 -95 3.34 -95 3 C-84.68081842 2.60572923 -74.36153138 2.2143521 -64.04210472 1.82654572 C-59.24904443 1.64633302 -54.45602424 1.46516906 -49.66308594 1.28173828 C-45.02715078 1.10435277 -40.39112323 0.92958727 -35.75502396 0.75654602 C-33.99701114 0.69048533 -32.23903196 0.62352201 -30.48109055 0.55558777 C-20.31340119 0.16333356 -10.17702746 -0.09817945 0 0 Z " fill="#D97618" transform="translate(206,128)"/>
<path d="M0 0 C0.99 0 1.98 0 3 0 C3.33 1.65 3.66 3.3 4 5 C4.763125 4.938125 5.52625 4.87625 6.3125 4.8125 C9 5 9 5 10.8125 6.0625 C12.69021039 9.12613274 12.43729494 11.50164045 12 15 C10.5 17 10.5 17 8 18 C5.36 17.67 2.72 17.34 0 17 C0 11.39 0 5.78 0 0 Z " fill="#C0C0C0" transform="translate(486,219)"/>
<path d="M0 0 C0.99 0 1.98 0 3 0 C3.33 1.65 3.66 3.3 4 5 C4.78375 4.95875 5.5675 4.9175 6.375 4.875 C9 5 9 5 11 7 C11.54560955 13.87468031 11.54560955 13.87468031 10 17.0625 C8 18 8 18 0 17 C0 11.39 0 5.78 0 0 Z " fill="#E4E4E4" transform="translate(298,219)"/>
<path d="M0 0 C2.9375 1.8125 2.9375 1.8125 5 4 C5 5.32 5 6.64 5 8 C-1.27 8 -7.54 8 -14 8 C-12.83636364 2.18181818 -12.83636364 2.18181818 -10 0 C-6.18323682 -1.27225439 -3.91280349 -0.87700768 0 0 Z " fill="#202020" transform="translate(396,172)"/>
<path d="M0 0 C2.9375 2.375 2.9375 2.375 5 5 C5 5.99 5 6.98 5 8 C-1.27 8 -7.54 8 -14 8 C-12.83636364 2.18181818 -12.83636364 2.18181818 -10 0 C-6.1544104 -1.2818632 -3.93271581 -0.94927623 0 0 Z " fill="#1F1F1F" transform="translate(144,172)"/>
<path d="M0 0 C2.35546875 0.16796875 2.35546875 0.16796875 5 1 C6.36328125 3.36328125 6.36328125 3.36328125 7.3125 6.3125 C7.63863281 7.27800781 7.96476562 8.24351562 8.30078125 9.23828125 C9 12 9 12 9 16 C8.01 16 7.02 16 6 16 C6 15.01 6 14.02 6 13 C4.0509375 13.185625 4.0509375 13.185625 2.0625 13.375 C1.33160156 13.44460937 0.60070312 13.51421875 -0.15234375 13.5859375 C-0.76207031 13.72257813 -1.37179688 13.85921875 -2 14 C-2.33 14.66 -2.66 15.32 -3 16 C-3.66 16 -4.32 16 -5 16 C-4.49228528 10.03435204 -2.61407872 5.36190101 0 0 Z " fill="#B4B4B4" transform="translate(102,220)"/>
<path d="M0 0 C2.45862401 -0.05383848 4.9160755 -0.09359038 7.375 -0.125 C8.42300781 -0.15013672 8.42300781 -0.15013672 9.4921875 -0.17578125 C11.32897486 -0.19344267 13.16601963 -0.10303261 15 0 C17 2 17 2 17.1953125 4.3828125 C17.17210937 5.28773438 17.14890625 6.19265625 17.125 7.125 C17.10695313 8.03507813 17.08890625 8.94515625 17.0703125 9.8828125 C17.04710937 10.58148438 17.02390625 11.28015625 17 12 C16.01 12 15.02 12 14 12 C13.67 9.03 13.34 6.06 13 3 C12.34 3 11.68 3 11 3 C10.67 5.97 10.34 8.94 10 12 C9.01 12 8.02 12 7 12 C6.67 9.03 6.34 6.06 6 3 C5.34 3 4.68 3 4 3 C3.67 5.97 3.34 8.94 3 12 C2.01 12 1.02 12 0 12 C0 8.04 0 4.08 0 0 Z " fill="#D7D7D7" transform="translate(344,224)"/>
<path d="M0 0 C1.875 1.125 1.875 1.125 3 3 C3.42478586 7.07794425 3.31282587 8.53076119 1 12 C-2.4375 12.4375 -2.4375 12.4375 -6 12 C-8.42061048 9.89172636 -8.9127007 8.59654522 -9.375 5.4375 C-9 3 -9 3 -7.875 1.1875 C-5.12844028 -0.55198782 -3.18153026 -0.39769128 0 0 Z " fill="#D4D4D4" transform="translate(476,224)"/>
<path d="M0 0 C1.875 1.8125 1.875 1.8125 3 4 C3 4.99 3 5.98 3 7 C0.03 7 -2.94 7 -6 7 C-5.67 7.66 -5.34 8.32 -5 9 C-3.02 9 -1.04 9 1 9 C0.34 10.32 -0.32 11.64 -1 13 C-3.3125 13.25 -3.3125 13.25 -6 13 C-8.5348994 10.72733157 -8.96041822 9.32325124 -9.375 5.9375 C-9 3 -9 3 -7.875 1.125 C-5.08893958 -0.54663625 -3.18011138 -0.46376624 0 0 Z " fill="#E0E0E0" transform="translate(278,224)"/>
<path d="M0 0 C1 1 1 1 1.0625 3.5625 C1.041875 4.366875 1.02125 5.17125 1 6 C-1.64 6 -4.28 6 -7 6 C-6.67 6.66 -6.34 7.32 -6 8 C-2.97065509 8.65772428 -2.97065509 8.65772428 0 9 C-0.99 10.485 -0.99 10.485 -2 12 C-4.4375 12.4375 -4.4375 12.4375 -7 12 C-9.5348994 9.72733157 -9.96041822 8.32325124 -10.375 4.9375 C-10 2 -10 2 -8.9375 0.0625 C-5.84787273 -1.63181173 -3.32782582 -0.73951685 0 0 Z " fill="#B4B4B4" transform="translate(536,225)"/>
<path d="M0 0 C2.875 -0.125 2.875 -0.125 6 0 C8 2 8 2 8.1953125 4.3828125 C8.17210937 5.28773438 8.14890625 6.19265625 8.125 7.125 C8.10695312 8.03507813 8.08890625 8.94515625 8.0703125 9.8828125 C8.04710937 10.58148438 8.02390625 11.28015625 8 12 C6.52093108 12.02689216 5.04172517 12.04634621 3.5625 12.0625 C2.32693359 12.07990234 2.32693359 12.07990234 1.06640625 12.09765625 C-1 12 -1 12 -2 11 C-2.125 8.5 -2.125 8.5 -2 6 C-1 5 -1 5 2.0625 4.9375 C3.5165625 4.9684375 3.5165625 4.9684375 5 5 C5 4.01 5 3.02 5 2 C3.02 2.33 1.04 2.66 -1 3 C-0.67 2.01 -0.34 1.02 0 0 Z " fill="#E0E0E0" transform="translate(213,224)"/>
<path d="M0 0 C2.47923801 -0.02685095 4.9581884 -0.04676547 7.4375 -0.0625 C8.14455078 -0.07087891 8.85160156 -0.07925781 9.58007812 -0.08789062 C11.38693559 -0.09653588 13.19387603 -0.05220011 15 0 C16 1 16 1 16.09765625 3.50390625 C16.08605469 4.51324219 16.07445312 5.52257812 16.0625 6.5625 C16.05347656 7.57441406 16.04445313 8.58632812 16.03515625 9.62890625 C16.02355469 10.41136719 16.01195312 11.19382813 16 12 C15.34 12 14.68 12 14 12 C13.67 9.03 13.34 6.06 13 3 C12.01 3 11.02 3 10 3 C9.67 5.97 9.34 8.94 9 12 C8.34 12 7.68 12 7 12 C6.67 9.03 6.34 6.06 6 3 C5.01 3 4.02 3 3 3 C2.67 5.97 2.34 8.94 2 12 C1.34 12 0.68 12 0 12 C0 8.04 0 4.08 0 0 Z " fill="#E3E3E3" transform="translate(444,224)"/>
<path d="M0 0 C6.8359375 -0.1953125 6.8359375 -0.1953125 9 0 C11 2 11 2 11.1953125 4.3828125 C11.17210937 5.28773438 11.14890625 6.19265625 11.125 7.125 C11.10695312 8.03507813 11.08890625 8.94515625 11.0703125 9.8828125 C11.04710937 10.58148438 11.02390625 11.28015625 11 12 C10.01 12 9.02 12 8 12 C8 9.03 8 6.06 8 3 C6.35 3 4.7 3 3 3 C3 5.97 3 8.94 3 12 C2.01 12 1.02 12 0 12 C0 8.04 0 4.08 0 0 Z " fill="#C9C9C9" transform="translate(118,224)"/>
<path d="M0 0 C0.99 0 1.98 0 3 0 C3 3.3 3 6.6 3 10 C4.32 10 5.64 10 7 10 C7 6.7 7 3.4 7 0 C7.99 0 8.98 0 10 0 C10 3.96 10 7.92 10 12 C3.9453125 12.9765625 3.9453125 12.9765625 2 13 C0 11 0 11 -0.1953125 8.3984375 C-0.17210937 7.40070313 -0.14890625 6.40296875 -0.125 5.375 C-0.10695313 4.37210938 -0.08890625 3.36921875 -0.0703125 2.3359375 C-0.04710937 1.56507813 -0.02390625 0.79421875 0 0 Z " fill="#C8C8C8" transform="translate(404,224)"/>
<path d="M0 0 C0.33 0.99 0.66 1.98 1 3 C4.00847418 4.22520264 4.00847418 4.22520264 7 5 C7.33 3.68 7.66 2.36 8 1 C8.625 2.8125 8.625 2.8125 9 5 C8.34 5.99 7.68 6.98 7 8 C4.6171875 8.29296875 4.6171875 8.29296875 1.875 8.1875 C0.96492188 8.16042969 0.05484375 8.13335937 -0.8828125 8.10546875 C-1.58148438 8.07066406 -2.28015625 8.03585938 -3 8 C-3.33 7.34 -3.66 6.68 -4 6 C-3.67 5.34 -3.34 4.68 -3 4 C-3.99 4.66 -4.98 5.32 -6 6 C-7.99291992 6.04345703 -7.99291992 6.04345703 -10.23046875 5.7578125 C-11.03291016 5.66113281 -11.83535156 5.56445312 -12.66210938 5.46484375 C-13.49548828 5.35269531 -14.32886719 5.24054688 -15.1875 5.125 C-16.03248047 5.02058594 -16.87746094 4.91617188 -17.74804688 4.80859375 C-19.83334275 4.54940443 -21.91686936 4.27605197 -24 4 C-24 3.67 -24 3.34 -24 3 C-16.41 2.67 -8.82 2.34 -1 2 C-0.67 1.34 -0.34 0.68 0 0 Z " fill="#DB7013" transform="translate(254,123)"/>
<path d="M0 0 C0.99 0 1.98 0 3 0 C3 3.3 3 6.6 3 10 C4.32 9.67 5.64 9.34 7 9 C7.33 6.03 7.66 3.06 8 0 C8.99 0 9.98 0 11 0 C11 3.96 11 7.92 11 12 C4.1640625 12.1953125 4.1640625 12.1953125 2 12 C0 10 0 10 -0.1953125 7.6171875 C-0.17210937 6.71226562 -0.14890625 5.80734375 -0.125 4.875 C-0.10695313 3.96492187 -0.08890625 3.05484375 -0.0703125 2.1171875 C-0.04710937 1.41851562 -0.02390625 0.71984375 0 0 Z " fill="#D1D1D1" transform="translate(368,224)"/>
<path d="M0 0 C6.8359375 -0.1953125 6.8359375 -0.1953125 9 0 C11 2 11 2 11.1953125 4.3828125 C11.17210937 5.28773438 11.14890625 6.19265625 11.125 7.125 C11.10695312 8.03507813 11.08890625 8.94515625 11.0703125 9.8828125 C11.04710937 10.58148438 11.02390625 11.28015625 11 12 C10.01 12 9.02 12 8 12 C7.67 9.03 7.34 6.06 7 3 C6.01 3 5.02 3 4 3 C3.67 5.97 3.34 8.94 3 12 C2.01 12 1.02 12 0 12 C0 8.04 0 4.08 0 0 Z " fill="#D5D5D5" transform="translate(158,224)"/>
<path d="M0 0 C0.99 0.33 1.98 0.66 3 1 C4.1875 3.5625 4.1875 3.5625 5 6 C5.99 4.02 6.98 2.04 8 0 C8.99 0 9.98 0 11 0 C7.72689134 11.7460495 7.72689134 11.7460495 5 16 C2.8125 16.875 2.8125 16.875 1 17 C1 16.34 1 15.68 1 15 C1.66 14.67 2.32 14.34 3 14 C2.44600983 10.02973711 1.50059058 6.70145675 0 3 C0 2.01 0 1.02 0 0 Z " fill="#D3D3D3" transform="translate(316,224)"/>
<path d="M0 0 C7.26 0 14.52 0 22 0 C22 7.92 22 15.84 22 24 C21.67 24 21.34 24 21 24 C21 16.41 21 8.82 21 1 C16.854375 1.2165625 16.854375 1.2165625 12.625 1.4375 C11.32103271 1.50215454 11.32103271 1.50215454 9.99072266 1.56811523 C5.86266224 1.70995942 5.86266224 1.70995942 2 3 C1.67 9.93 1.34 16.86 1 24 C0.67 24 0.34 24 0 24 C0 16.08 0 8.16 0 0 Z " fill="#311000" transform="translate(453,182)"/>
<path d="M0 0 C0.66 0 1.32 0 2 0 C2 2.97 2 5.94 2 9 C3.65 7.35 5.3 5.7 7 4 C7.99 4.33 8.98 4.66 10 5 C9.484375 5.4125 8.96875 5.825 8.4375 6.25 C6.7577168 7.87499557 6.7577168 7.87499557 7.1875 9.9375 C8.0126237 12.03204478 8.93709487 14.01591042 10 16 C6.73045798 15.43628586 5.17424117 14.50037734 3 12 C2.67 13.32 2.34 14.64 2 16 C1.34 16 0.68 16 0 16 C0 10.72 0 5.44 0 0 Z " fill="#DDDDDD" transform="translate(387,220)"/>
<path d="M0 0 C1.39120471 0.00015906 2.78241534 0.00585033 4.17358398 0.01586914 C4.90463852 0.01728409 5.63569305 0.01869904 6.38890076 0.02015686 C8.73253406 0.02577131 11.07607313 0.03832617 13.41967773 0.05102539 C15.00496282 0.05603853 16.59024939 0.06060176 18.17553711 0.06469727 C22.06945383 0.07574542 25.96329979 0.09301967 29.85717773 0.11352539 C29.85717773 0.44352539 29.85717773 0.77352539 29.85717773 1.11352539 C-1.46322674 3.50129345 -1.46322674 3.50129345 -15.14282227 3.11352539 C-15.14282227 2.78352539 -15.14282227 2.45352539 -15.14282227 2.11352539 C-14.36036133 2.05293945 -13.57790039 1.99235352 -12.77172852 1.92993164 C-11.75981445 1.84614258 -10.74790039 1.76235352 -9.70532227 1.67602539 C-8.69598633 1.59481445 -7.68665039 1.51360352 -6.64672852 1.42993164 C-3.4479694 1.02572027 -3.44260667 0.12435424 0 0 Z " fill="#D07017" transform="translate(455.142822265625,248.886474609375)"/>
<path d="M0 0 C0.99 0.33 1.98 0.66 3 1 C4.1875 3.5625 4.1875 3.5625 5 6 C7.1385485 3.8614515 7.42655063 2.86724686 8 0 C8.99 0 9.98 0 11 0 C10.68950274 1.43793392 10.3765224 2.8753318 10.0625 4.3125 C9.88847656 5.11300781 9.71445312 5.91351563 9.53515625 6.73828125 C9 9 9 9 8 12 C5.6875 12 5.6875 12 3 11 C0.97872513 7.47856019 0 4.04735389 0 0 Z " fill="#C3C3C3" transform="translate(252,224)"/>
<path d="M0 0 C0.99 0.66 1.98 1.32 3 2 C3.66 1.67 4.32 1.34 5 1 C4.55413762 5.90448622 3.47160185 7.64038531 0 11 C0 12.32 0 13.64 0 15 C-1.32 14.67 -2.64 14.34 -4 14 C-3 6.57142857 -3 6.57142857 -2 3 C-1.34 3 -0.68 3 0 3 C0 2.01 0 1.02 0 0 Z " fill="#F2790D" transform="translate(346,261)"/>
<path d="M0 0 C-0.33 1.98 -0.66 3.96 -1 6 C-1.66 6 -2.32 6 -3 6 C-3 6.66 -3 7.32 -3 8 C-3.763125 8.12375 -4.52625 8.2475 -5.3125 8.375 C-8.20267136 8.88102792 -8.20267136 8.88102792 -11 11 C-9.56440678 3.41186441 -9.56440678 3.41186441 -6.6875 1.3125 C-4 0 -4 0 0 0 Z " fill="#F27B0F" transform="translate(311,40)"/>
<path d="M0 0 C0.99 0 1.98 0 3 0 C3 0.99 3 1.98 3 3 C3.66 3 4.32 3 5 3 C5 3.66 5 4.32 5 5 C4.34 5 3.68 5 3 5 C3 7.64 3 10.28 3 13 C3.99 13 4.98 13 6 13 C6 13.66 6 14.32 6 15 C4.33388095 15.042721 2.66617115 15.04063832 1 15 C-0.71584497 13.28415503 -0.40976422 10.96799522 -0.625 8.625 C-0.72039062 7.64789063 -0.81578125 6.67078125 -0.9140625 5.6640625 C-1 3 -1 3 0 0 Z " fill="#CCCCCC" transform="translate(188,221)"/>
<path d="M0 0 C0.66 0 1.32 0 2 0 C2 0.99 2 1.98 2 3 C2.99 3 3.98 3 5 3 C5 3.99 5 4.98 5 6 C4.34 6 3.68 6 3 6 C3 8.31 3 10.62 3 13 C3.66 13 4.32 13 5 13 C5 13.66 5 14.32 5 15 C3.35 15 1.7 15 0 15 C0 11.7 0 8.4 0 5 C-0.66 5 -1.32 5 -2 5 C-2 4.34 -2 3.68 -2 3 C-1.34 3 -0.68 3 0 3 C0 2.01 0 1.02 0 0 Z " fill="#D1D1D1" transform="translate(230,221)"/>
<path d="M0 0 C0.66 0 1.32 0 2 0 C3.49821059 3.37097383 4 5.20442119 4 9 C3.01 9 2.02 9 1 9 C1 8.01 1 7.02 1 6 C-0.299375 6.12375 -1.59875 6.2475 -2.9375 6.375 C-3.66839844 6.44460937 -4.39929688 6.51421875 -5.15234375 6.5859375 C-5.76207031 6.72257813 -6.37179688 6.85921875 -7 7 C-7.33 7.66 -7.66 8.32 -8 9 C-8.66 9 -9.32 9 -10 9 C-9.67 7.35 -9.34 5.7 -9 4 C-5.52176885 2.84058962 -3.54104422 3.29179116 0 4 C0 2.68 0 1.36 0 0 Z " fill="#D3D3D3" transform="translate(107,227)"/>
<path d="M0 0 C0.33 0 0.66 0 1 0 C1.66 4.29 2.32 8.58 3 13 C4.65 12.67 6.3 12.34 8 12 C8.66 11.01 9.32 10.02 10 9 C10.22111261 11.72705554 10.30361625 13.46420662 8.9375 15.875 C7 17 7 17 0 16 C0 10.72 0 5.44 0 0 Z " fill="#DFDFDF" transform="translate(487,220)"/>
<path d="M0 0 C0.99 0 1.98 0 3 0 C3 5.61 3 11.22 3 17 C2.01 17 1.02 17 0 17 C0 11.39 0 5.78 0 0 Z " fill="#CCCCCC" transform="translate(516,219)"/>
<path d="M0 0 C0.99 0 1.98 0 3 0 C3 5.61 3 11.22 3 17 C2.01 17 1.02 17 0 17 C0 11.39 0 5.78 0 0 Z " fill="#D5D5D5" transform="translate(422,219)"/>
<path d="M0 0 C1.32 0 2.64 0 4 0 C4.6875 3.3125 4.6875 3.3125 5 7 C3.5625 8.9375 3.5625 8.9375 2 10 C1.67 9.34 1.34 8.68 1 8 C0.01 8 -0.98 8 -2 8 C-3 5 -3 5 -1.8125 2.3125 C-1.214375 1.549375 -0.61625 0.78625 0 0 Z " fill="#F37A0E" transform="translate(294,58)"/>
<path d="M0 0 C0.66 0 1.32 0 2 0 C3.13480527 3.60993172 3.10015767 6.9842327 3.0625 10.75 C3.05347656 11.92046875 3.04445312 13.0909375 3.03515625 14.296875 C3.02355469 15.18890625 3.01195312 16.0809375 3 17 C2.01 17 1.02 17 0 17 C-0.19386492 14.35448944 -0.38038267 11.70882217 -0.5625 9.0625 C-0.61857422 8.30775391 -0.67464844 7.55300781 -0.73242188 6.77539062 C-0.86176157 4.85254042 -0.93516912 2.92610452 -1 1 C-0.67 0.67 -0.34 0.34 0 0 Z " fill="#A4A4A4" transform="translate(201,219)"/>
<path d="M0 0 C2.52184054 0.02861663 4.94467235 0.18219206 7.44140625 0.53125 C7.44140625 1.19125 7.44140625 1.85125 7.44140625 2.53125 C5.13140625 2.86125 2.82140625 3.19125 0.44140625 3.53125 C0.44140625 4.85125 0.44140625 6.17125 0.44140625 7.53125 C-0.21859375 7.53125 -0.87859375 7.53125 -1.55859375 7.53125 C-1.55859375 6.54125 -1.55859375 5.55125 -1.55859375 4.53125 C-2.21859375 4.20125 -2.87859375 3.87125 -3.55859375 3.53125 C-3.88859375 5.18125 -4.21859375 6.83125 -4.55859375 8.53125 C-5.54859375 8.53125 -6.53859375 8.53125 -7.55859375 8.53125 C-4.32092559 0.89716928 -4.32092559 0.89716928 0 0 Z " fill="#CC6A11" transform="translate(179.55859375,247.46875)"/>
<path d="M0 0 C0.66 0 1.32 0 2 0 C2 5.61 2 11.22 2 17 C1.01 17 0.02 17 -1 17 C-1.02684679 14.35409986 -1.04676357 11.70846904 -1.0625 9.0625 C-1.07087891 8.30775391 -1.07925781 7.55300781 -1.08789062 6.77539062 C-1.09652441 4.85005687 -1.05224333 2.92464419 -1 1 C-0.67 0.67 -0.34 0.34 0 0 Z " fill="#B5B5B5" transform="translate(148,219)"/>
<path d="M0 0 C0.99 0.33 1.98 0.66 3 1 C3 6.28 3 11.56 3 17 C2.01 17 1.02 17 0 17 C0 11.39 0 5.78 0 0 Z " fill="#B3B3B3" transform="translate(177,219)"/>
<path d="M0 0 C2.64 0 5.28 0 8 0 C8 0.66 8 1.32 8 2 C6.68 2.33 5.36 2.66 4 3 C3.67 5.97 3.34 8.94 3 12 C2.01 12 1.02 12 0 12 C0 8.04 0 4.08 0 0 Z " fill="#CCCCCC" transform="translate(344,224)"/>
<path d="M0 0 C1.67542976 0.28604898 3.34385343 0.61781233 5 1 C5 2.98 5 4.96 5 7 C3.34385343 7.38218767 1.67542976 7.71395102 0 8 C-1 7 -1 7 -1.125 4 C-1 1 -1 1 0 0 Z " fill="#1D1D1D" transform="translate(490,226)"/>
<path d="M0 0 C1.67542976 0.28604898 3.34385343 0.61781233 5 1 C5 2.98 5 4.96 5 7 C3.34385343 7.38218767 1.67542976 7.71395102 0 8 C-1 7 -1 7 -1.125 4 C-1 1 -1 1 0 0 Z " fill="#1F1F1F" transform="translate(471,226)"/>
<path d="M0 0 C0.99 0.33 1.98 0.66 3 1 C3 1.66 3 2.32 3 3 C4.65 3 6.3 3 8 3 C7.43628586 6.26954202 6.50037734 7.82575883 4 10 C3.67 9.34 3.34 8.68 3 8 C0.97536745 7.34786708 0.97536745 7.34786708 -1 7 C-0.34 6.67 0.32 6.34 1 6 C0.67 4.02 0.34 2.04 0 0 Z " fill="#F47D0D" transform="translate(367,67)"/>
<path d="M0 0 C0.66 0.33 1.32 0.66 2 1 C2 2.65 2 4.3 2 6 C1.01 6.495 1.01 6.495 0 7 C-0.72159424 8.64363134 -1.39351421 10.31050386 -2 12 C-2.33 10.68 -2.66 9.36 -3 8 C-3.66 8 -4.32 8 -5 8 C-4.64950425 4.75791433 -4.43778819 3.38472296 -1.9375 1.1875 C-1.298125 0.795625 -0.65875 0.40375 0 0 Z " fill="#F07C0F" transform="translate(319,308)"/>
<path d="M0 0 C1.32 0 2.64 0 4 0 C4.33 2.31 4.66 4.62 5 7 C3.34385343 7.38218767 1.67542976 7.71395102 0 8 C-1 7 -1 7 -1.125 4 C-1 1 -1 1 0 0 Z " fill="#1D1D1D" transform="translate(302,226)"/>
<path d="M0 0 C0.99 0 1.98 0 3 0 C3 1.98 3 3.96 3 6 C2.67 6 2.34 6 2 6 C1.67 8.97 1.34 11.94 1 15 C1.99 14.67 2.98 14.34 4 14 C7 16 7 16 8 18 C5.36 17.67 2.72 17.34 0 17 C0 11.39 0 5.78 0 0 Z " fill="#C2C2C2" transform="translate(298,219)"/>
<path d="M0 0 C0.33 0 0.66 0 1 0 C1 2.31 1 4.62 1 7 C-3.873261 8.5912689 -7.80790596 9.21192221 -13 9 C-13 8.01 -13 7.02 -13 6 C-13.66 6 -14.32 6 -15 6 C-14.67 5.34 -14.34 4.68 -14 4 C-12.515 4.99 -12.515 4.99 -11 6 C-7.54250051 6.66676878 -7.54250051 6.66676878 -4 6 C-1.57577814 3.11490087 -1.57577814 3.11490087 0 0 Z " fill="#D47015" transform="translate(307,322)"/>
<path d="M0 0 C1.04449911 3.13349732 0.93423645 3.98968256 0 7 C-1.175625 6.9690625 -1.175625 6.9690625 -2.375 6.9375 C-4.98114961 6.81315937 -4.98114961 6.81315937 -7 8 C-7.042721 6.33388095 -7.04063832 4.66617115 -7 3 C-6 2 -6 2 -2.9375 1.9375 C-1.4834375 1.9684375 -1.4834375 1.9684375 0 2 C0 1.34 0 0.68 0 0 Z " fill="#898989" transform="translate(218,227)"/>
<path d="M0 0 C0.99 0 1.98 0 3 0 C3 3.96 3 7.92 3 12 C2.01 12 1.02 12 0 12 C0 8.04 0 4.08 0 0 Z " fill="#CDCDCD" transform="translate(242,224)"/>
<path d="M0 0 C0.99 0 1.98 0 3 0 C3 3.96 3 7.92 3 12 C2.01 12 1.02 12 0 12 C0 8.04 0 4.08 0 0 Z " fill="#D1D1D1" transform="translate(505,224)"/>
<path d="M0 0 C0.66 0 1.32 0 2 0 C2 2.97 2 5.94 2 9 C2.66 9.33 3.32 9.66 4 10 C3.34 11.98 2.68 13.96 2 16 C1.34 16 0.68 16 0 16 C0 10.72 0 5.44 0 0 Z " fill="#EDEDED" transform="translate(387,220)"/>
<path d="M0 0 C0.66 0 1.32 0 2 0 C2 0.66 2 1.32 2 2 C3.11375 2.0928125 3.11375 2.0928125 4.25 2.1875 C7.8185739 3.24185138 8.92245228 4.99909773 11 8 C6.92394904 8 4.2161819 6.44727466 1 4 C0.0625 1.75 0.0625 1.75 0 0 Z " fill="#E27611" transform="translate(256,322)"/>
<path d="M0 0 C2.64 0 5.28 0 8 0 C6 2 6 2 3 3 C2.67 5.97 2.34 8.94 2 12 C1.34 12 0.68 12 0 12 C0 8.04 0 4.08 0 0 Z " fill="#E9E9E9" transform="translate(444,224)"/>
<path d="M0 0 C1.32 0.33 2.64 0.66 4 1 C4 4.3 4 7.6 4 11 C3.01 11 2.02 11 1 11 C0.67 7.37 0.34 3.74 0 0 Z " fill="#D5D5D5" transform="translate(125,225)"/>
<path d="M0 0 C1.65 0.33 3.3 0.66 5 1 C5 1.99 5 2.98 5 4 C5.66 4 6.32 4 7 4 C7.33 3.34 7.66 2.68 8 2 C8 2.99 8 3.98 8 5 C5.03 5 2.06 5 -1 5 C-0.67 3.35 -0.34 1.7 0 0 Z " fill="#7C7C7C" transform="translate(273,226)"/>
<path d="M0 0 C1.45428437 0.0396623 2.90799128 0.11093049 4.359375 0.2109375 C5.10445313 0.23800781 5.84953125 0.26507813 6.6171875 0.29296875 C8.44916493 0.36342942 10.27964651 0.47104757 12.109375 0.5859375 C12.109375 0.9159375 12.109375 1.2459375 12.109375 1.5859375 C10.68044922 1.58980469 10.68044922 1.58980469 9.22265625 1.59375 C2.2990347 1.5286993 2.2990347 1.5286993 -3.93359375 3.98828125 C-5.44404976 5.77441849 -5.44404976 5.77441849 -6.890625 8.5859375 C-7.220625 7.9259375 -7.550625 7.2659375 -7.890625 6.5859375 C-5.71766897 2.22858884 -4.9524278 0.74584756 0 0 Z " fill="#3C1801" transform="translate(362.890625,254.4140625)"/>
<path d="M0 0 C4.29 2.31 8.58 4.62 13 7 C9.37673261 8.2077558 8.35853631 7.54311128 5 6 C5 5.34 5 4.68 5 4 C3.35 3.67 1.7 3.34 0 3 C0 2.01 0 1.02 0 0 Z M-3 3 C-1.68 3.33 -0.36 3.66 1 4 C0.67 4.66 0.34 5.32 0 6 C-0.99 5.01 -1.98 4.02 -3 3 Z " fill="#D8761B" transform="translate(227,303)"/>
<path d="M0 0 C1.32 0 2.64 0 4 0 C4 3.3 4 6.6 4 10 C3.01 10 2.02 10 1 10 C0.67 6.7 0.34 3.4 0 0 Z " fill="#D1D1D1" transform="translate(357,226)"/>
<path d="M0 0 C0.33 0 0.66 0 1 0 C0.67 2.97 0.34 5.94 0 9 C-3.4375 8.1875 -3.4375 8.1875 -7 7 C-7.33 6.01 -7.66 5.02 -8 4 C-5.36 4 -2.72 4 0 4 C0 2.68 0 1.36 0 0 Z " fill="#2B2B2B" transform="translate(537,227)"/>
<path d="M0 0 C1.32 0 2.64 0 4 0 C3.67 1.32 3.34 2.64 3 4 C2.34 3.67 1.68 3.34 1 3 C0.67 4.98 0.34 6.96 0 9 C-0.66 9 -1.32 9 -2 9 C-2.25 3.375 -2.25 3.375 0 0 Z " fill="#E0E0E0" transform="translate(102,220)"/>
<path d="M0 0 C1.98 0.495 1.98 0.495 4 1 C4 3.97 4 6.94 4 10 C4.66 10.33 5.32 10.66 6 11 C5.01 11 4.02 11 3 11 C2.67 8.36 2.34 5.72 2 3 C1.34 3 0.68 3 0 3 C0 5.31 0 7.62 0 10 C-0.33 10 -0.66 10 -1 10 C-1.02689216 8.52093108 -1.04634621 7.04172517 -1.0625 5.5625 C-1.07410156 4.73878906 -1.08570313 3.91507813 -1.09765625 3.06640625 C-1 1 -1 1 0 0 Z " fill="#535353" transform="translate(447,226)"/>
<path d="M0 0 C0.33 0 0.66 0 1 0 C1 5.28 1 10.56 1 16 C1.99 16.33 2.98 16.66 4 17 C2.68 18.32 1.36 19.64 0 21 C0 14.07 0 7.14 0 0 Z " fill="#260A01" transform="translate(556,147)"/>
<path d="M0 0 C0.66 0.33 1.32 0.66 2 1 C2 1.66 2 2.32 2 3 C2.66 2.01 3.32 1.02 4 0 C4.99 0.33 5.98 0.66 7 1 C5.35 2.65 3.7 4.3 2 6 C1.01 5.67 0.02 5.34 -1 5 C-1.33 5.99 -1.66 6.98 -2 8 C-2.33 7.34 -2.66 6.68 -3 6 C-2.06553465 3.96855359 -1.06775224 1.96466413 0 0 Z " fill="#F37B0A" transform="translate(268,101)"/>
<path d="M0 0 C0.99 0.33 1.98 0.66 3 1 C3.33 3.97 3.66 6.94 4 10 C4.99 10 5.98 10 7 10 C7 10.66 7 11.32 7 12 C5.109375 11.7421875 5.109375 11.7421875 3 11 C1.953125 9.2578125 1.953125 9.2578125 1.25 7.125 C1.00765625 6.42632812 0.7653125 5.72765625 0.515625 5.0078125 C0 3 0 3 0 0 Z " fill="#E2E2E2" transform="translate(252,224)"/>
<path d="M0 0 C0.66 0.66 1.32 1.32 2 2 C5.08347826 2.16681109 5.08347826 2.16681109 8 2 C7.34 3.32 6.68 4.64 6 6 C3.625 6.1875 3.625 6.1875 1 6 C0.34 5.01 -0.32 4.02 -1 3 C-0.67 2.01 -0.34 1.02 0 0 Z " fill="#BFBFBF" transform="translate(271,231)"/>
<path d="M0 0 C0.99 0.33 1.98 0.66 3 1 C2.505 1.928125 2.01 2.85625 1.5 3.8125 C-0.21289852 6.86527516 -0.21289852 6.86527516 0 10 C-2.475 9.01 -2.475 9.01 -5 8 C-4.67 7.34 -4.34 6.68 -4 6 C-3.34 6 -2.68 6 -2 6 C-1.34 4.02 -0.68 2.04 0 0 Z " fill="#E17612" transform="translate(375,70)"/>
<path d="M0 0 C0.66 0.66 1.32 1.32 2 2 C3.98821313 2.39764263 5.98944339 2.73775349 8 3 C7.01 4.485 7.01 4.485 6 6 C3.375 6.1875 3.375 6.1875 1 6 C-0.0625 4.125 -0.0625 4.125 -1 2 C-0.67 1.34 -0.34 0.68 0 0 Z " fill="#C1C1C1" transform="translate(528,231)"/>
<path d="M0 0 C1.98 0.495 1.98 0.495 4 1 C4 3.97 4 6.94 4 10 C3.67 10 3.34 10 3 10 C2.67 7.69 2.34 5.38 2 3 C1.67 3 1.34 3 1 3 C0.67 5.31 0.34 7.62 0 10 C-0.33 10 -0.66 10 -1 10 C-1.02689216 8.52093108 -1.04634621 7.04172517 -1.0625 5.5625 C-1.07410156 4.73878906 -1.08570313 3.91507813 -1.09765625 3.06640625 C-1 1 -1 1 0 0 Z " fill="#222222" transform="translate(162,226)"/>
<path d="M0 0 C0.99 0 1.98 0 3 0 C3 1.32 3 2.64 3 4 C2.01 4.495 2.01 4.495 1 5 C0.53101037 7.8159849 0.53101037 7.8159849 0.375 11.0625 C0.30023438 12.16722656 0.22546875 13.27195313 0.1484375 14.41015625 C0.09945312 15.26480469 0.05046875 16.11945313 0 17 C-0.33 17 -0.66 17 -1 17 C-1.02709444 14.91673869 -1.04643873 12.83337559 -1.0625 10.75 C-1.07410156 9.58984375 -1.08570313 8.4296875 -1.09765625 7.234375 C-1.01782092 4.59022872 -0.78643778 2.50173909 0 0 Z " fill="#545454" transform="translate(242,219)"/>
<path d="M0 0 C0.99 0 1.98 0 3 0 C2.01 3.3 1.02 6.6 0 10 C-0.66 9.34 -1.32 8.68 -2 8 C-1.69347955 5.0574037 -1.32728846 2.65457692 0 0 Z " fill="#CDCDCD" transform="translate(324,224)"/>
<path d="M0 0 C-1 3 -1 3 -2.875 4 C-3.57625 4.33 -4.2775 4.66 -5 5 C-6.70921589 6.5412312 -6.70921589 6.5412312 -8 8 C-8.66 7.67 -9.32 7.34 -10 7 C-3.18421053 0 -3.18421053 0 0 0 Z " fill="#DDDDDD" transform="translate(239,163)"/>
<path d="M0 0 C1 4 1 4 -0.1875 6.6875 C-2 9 -2 9 -6 10 C-4.02 6.7 -2.04 3.4 0 0 Z " fill="#D46F14" transform="translate(348,255)"/>
<path d="M0 0 C0.6875 1.6875 0.6875 1.6875 1 4 C-0.25 6.75 -0.25 6.75 -2 9 C-2.99 9 -3.98 9 -5 9 C-5 8.34 -5 7.68 -5 7 C-4.34 6.67 -3.68 6.34 -3 6 C-2.29788106 4.34795544 -1.63028587 2.68076231 -1 1 C-0.67 0.67 -0.34 0.34 0 0 Z " fill="#E9E9E9" transform="translate(322,232)"/>
<path d="M0 0 C0.99 0 1.98 0 3 0 C3 0.99 3 1.98 3 3 C3.66 3 4.32 3 5 3 C5 3.66 5 4.32 5 5 C4.01 5 3.02 5 2 5 C1.67 5.66 1.34 6.32 1 7 C1 6.34 1 5.68 1 5 C0.34 5 -0.32 5 -1 5 C-0.67 3.35 -0.34 1.7 0 0 Z " fill="#E0E0E0" transform="translate(188,221)"/>
<path d="M0 0 C1 2 1 2 0.0625 4.875 C-0.288125 5.90625 -0.63875 6.9375 -1 8 C-1 9.32 -1 10.64 -1 12 C-1.66 12 -2.32 12 -3 12 C-3 11.01 -3 10.02 -3 9 C-3.66 8.67 -4.32 8.34 -5 8 C-3.35 5.36 -1.7 2.72 0 0 Z " fill="#D87417" transform="translate(267,101)"/>
<path d="M0 0 C0.66 0 1.32 0 2 0 C2.125 3.375 2.125 3.375 2 7 C1.34 7.66 0.68 8.32 0 9 C-2.125 8.625 -2.125 8.625 -4 8 C-3.01 7.34 -2.02 6.68 -1 6 C-0.26656572 2.93443402 -0.26656572 2.93443402 0 0 Z " fill="#EFEFEF" transform="translate(307,227)"/>
<path d="M0 0 C0 0.33 0 0.66 0 1 C-1.65 1 -3.3 1 -5 1 C-5.33 3.31 -5.66 5.62 -6 8 C-6.99 8 -7.98 8 -9 8 C-9.22223194 5.25913944 -9.34781139 3.56036279 -7.875 1.1875 C-5.22464043 -0.49106106 -3.06753576 -0.20450238 0 0 Z " fill="#CACACA" transform="translate(476,224)"/>
<path d="M0 0 C0 3 0 3 0 3 Z M-2 3 C-1.34 3.99 -0.68 4.98 0 6 C-0.99 7.485 -0.99 7.485 -2 9 C-3.65 7.68 -5.3 6.36 -7 5 C-5.35 4.34 -3.7 3.68 -2 3 Z " fill="#DA7010" transform="translate(248,311)"/>
<path d="M0 0 C2.69082872 0.17635452 5.32851446 0.61835921 8 1 C8 1.33 8 1.66 8 2 C5.69 2 3.38 2 1 2 C0.67 3.32 0.34 4.64 0 6 C-0.66 6 -1.32 6 -2 6 C-1.125 1.125 -1.125 1.125 0 0 Z " fill="#ECECEC" transform="translate(99,230)"/>
<path d="M0 0 C0.33 0.66 0.66 1.32 1 2 C2.98 1.67 4.96 1.34 7 1 C7 1.99 7 2.98 7 4 C4.69 4.33 2.38 4.66 0 5 C0 3.35 0 1.7 0 0 Z " fill="#2D2D2D" transform="translate(211,225)"/>
<path d="M0 0 C1.65 0.33 3.3 0.66 5 1 C5 1.99 5 2.98 5 4 C3.35 4 1.7 4 0 4 C0 2.68 0 1.36 0 0 Z " fill="#ED7D16" transform="translate(236,295)"/>
<path d="M0 0 C0.66 0.33 1.32 0.66 2 1 C2 1.99 2 2.98 2 4 C-0.5 6.1875 -0.5 6.1875 -3 8 C-3 4.42424104 -1.91159393 2.94704065 0 0 Z " fill="#260F03" transform="translate(321,317)"/>
<path d="M0 0 C2.64 0 5.28 0 8 0 C6.8125 1.5625 6.8125 1.5625 5 3 C2.3125 2.6875 2.3125 2.6875 0 2 C0 1.34 0 0.68 0 0 Z " fill="#1B1B1B" transform="translate(272,231)"/>
<path d="M0 0 C0.66 0.33 1.32 0.66 2 1 C3.28317892 4.84953676 3.06643637 7.94738135 3 12 C2.67 12 2.34 12 2 12 C2 9.69 2 7.38 2 5 C1.01 5 0.02 5 -1 5 C-0.67 3.35 -0.34 1.7 0 0 Z " fill="#DB7619" transform="translate(443,110)"/>
<path d="M0 0 C1.32 0.66 2.64 1.32 4 2 C3.34 2 2.68 2 2 2 C2 2.66 2 3.32 2 4 C0.02 4.33 -1.96 4.66 -4 5 C-2.68 3.35 -1.36 1.7 0 0 Z " fill="#F3770A" transform="translate(396,84)"/>
<path d="M0 0 C1.32 0.66 2.64 1.32 4 2 C3.01 3.485 3.01 3.485 2 5 C-0.475 4.01 -0.475 4.01 -3 3 C-2.01 2.67 -1.02 2.34 0 2 C0 1.34 0 0.68 0 0 Z " fill="#D87417" transform="translate(241,297)"/>
<path d="M0 0 C2.31 0.33 4.62 0.66 7 1 C7.33 1.99 7.66 2.98 8 4 C5.36 3.67 2.72 3.34 0 3 C0 2.01 0 1.02 0 0 Z " fill="#B9B9B9" transform="translate(298,233)"/>
<path d="M0 0 C0.66 0.99 1.32 1.98 2 3 C1.01 3.33 0.02 3.66 -1 4 C-1 3.34 -1 2.68 -1 2 C-2.65 2.33 -4.3 2.66 -6 3 C-6.33 2.34 -6.66 1.68 -7 1 C-4.46578263 -0.26710868 -2.80561762 -0.28056176 0 0 Z " fill="#DADADA" transform="translate(307,224)"/>
<path d="M0 0 C0.66 0.33 1.32 0.66 2 1 C-1.96 4.465 -1.96 4.465 -6 8 C-6 5 -6 5 -4.6875 3.61328125 C-3.125 2.40885417 -1.5625 1.20442708 0 0 Z " fill="#212121" transform="translate(79,159)"/>
<path d="M0 0 C3.3 0.99 6.6 1.98 10 3 C10 3.33 10 3.66 10 4 C7.36 4 4.72 4 2 4 C1.34 2.68 0.68 1.36 0 0 Z " fill="#C56D14" transform="translate(289,342)"/>
<path d="M0 0 C0.66 0.99 1.32 1.98 2 3 C0.625 5 0.625 5 -1 7 C-1.66 7 -2.32 7 -3 7 C-1.125 1.125 -1.125 1.125 0 0 Z " fill="#D36C12" transform="translate(318,304)"/>
<path d="M0 0 C0.66 1.32 1.32 2.64 2 4 C0.68 5.32 -0.64 6.64 -2 8 C-2 4.23312136 -1.76462683 3.08809695 0 0 Z " fill="#D46D13" transform="translate(325,292)"/>
<path d="M0 0 C0.226875 0.5775 0.45375 1.155 0.6875 1.75 C2.33038023 4.5663661 4.39533227 6.08077114 7 8 C4.625 8.125 4.625 8.125 2 8 C0 6 0 6 -0.125 2.875 C-0.08375 1.92625 -0.0425 0.9775 0 0 Z " fill="#EDEDED" transform="translate(468,228)"/>
<path d="M0 0 C2.0625 0.4375 2.0625 0.4375 4 1 C2.4198632 3.15473199 0.89353366 5.10646634 -1 7 C-1.04254356 5.00045254 -1.04080783 2.99958364 -1 1 C-0.67 0.67 -0.34 0.34 0 0 Z " fill="#252525" transform="translate(490,226)"/>
<path d="M0 0 C0.66 0.33 1.32 0.66 2 1 C2.625 3.5625 2.625 3.5625 3 6 C1.68 6 0.36 6 -1 6 C-0.67 4.02 -0.34 2.04 0 0 Z " fill="#1C1C1C" transform="translate(103,224)"/>
<path d="M0 0 C2.475 0.495 2.475 0.495 5 1 C3.35 2.65 1.7 4.3 0 6 C0 4.02 0 2.04 0 0 Z " fill="#343434" transform="translate(347,162)"/>
</svg>
